<svg version="1.1" class="header_logo" id="Layer_1" xmlns="http://www.w3.org/2000/svg" xmlns:xlink="http://www.w3.org/1999/xlink" x="0px" y="0px"
		 viewBox="0 0 377.5 110.7" style="enable-background:new 0 0 377.5 110.7;" xml:space="preserve">
		<style type="text/css">
			.st0{fill:none;stroke:#000000;stroke-width:4;stroke-miterlimit:10;}
		</style>
		<g>
			<path d="M3.5,54.5v-4.9l45.8-28.5l5.6,8.8L19.2,51.5L55,72.7l-5.6,8.8L3.5,54.5z"/>
			<path d="M70.3,45.2h-9.7V34.4h9.7V23.2l12.8-3.6v14.8h25.7v10.8H83.1v14c0,5,0.9,8.7,2.8,10.9c1.9,2.3,4.5,3.4,8,3.4
					 c1.8,0,3.4-0.2,4.8-0.6c1.4-0.4,2.7-1,3.9-1.6c1.1-0.7,2.2-1.4,3.1-2.2c0.9-0.8,1.8-1.5,2.6-2.2l5.9,8.8c-1.1,1.3-2.5,2.5-4.2,3.6
					 c-1.7,1.1-3.5,2-5.4,2.8c-1.9,0.8-3.9,1.5-6,1.9c-2.1,0.5-4.2,0.7-6.2,0.7c-7.3,0-12.8-2-16.5-6.1c-3.7-4.1-5.5-10.6-5.5-19.5V45.2
					 z"/>
			<path d="M147.9,14.7h20.5v42.4c0,4.9,0.3,9.8,0.8,14.5c0,0.3,0,0.7,0.1,1h6.3v10.8h-15.8l-1.3-6.3h-0.4c-0.7,1.2-1.5,2.2-2.7,3.1
					 c-1.1,0.9-2.4,1.7-3.7,2.4s-2.9,1.2-4.5,1.6c-1.6,0.4-3.3,0.5-4.9,0.5c-3.1,0-6-0.5-8.7-1.5c-2.7-1-5.1-2.5-7.1-4.6
					 c-2-2.1-3.6-4.7-4.8-7.9c-1.2-3.2-1.8-6.9-1.8-11.2c0-4.2,0.6-7.9,1.9-11.2c1.3-3.3,3-6,5.3-8.3c2.3-2.3,4.9-4,8-5.2
					 c3.1-1.2,6.4-1.8,10.1-1.8c2,0,3.9,0.1,5.7,0.3c1.8,0.2,3.4,0.6,4.7,1.1v-9.1h-7.8V14.7z M145.2,74c2.5,0,4.7-0.6,6.6-1.8
					 c1.9-1.2,3.2-3,3.8-5.3V46.1c-0.9-0.7-2.2-1.3-3.8-1.6c-1.6-0.4-3.3-0.5-5.1-0.5c-1.8,0-3.5,0.3-5.2,0.9c-1.7,0.6-3.1,1.5-4.4,2.8
					 s-2.3,2.9-3,5c-0.8,2-1.1,4.5-1.1,7.5c0,4.2,1,7.6,3.1,10.1C138.3,72.7,141.3,74,145.2,74z"/>
			<path d="M277.7,13.5l9.6,4.3l-35,79.3l-9.6-4.5L277.7,13.5z"/>
			<path d="M303.7,81.5l-5.6-8.8l35.7-21.1l-35.7-21.6l5.6-8.8l45.8,28.5v4.9L303.7,81.5z"/>
		</g>
		<line class="st0" x1="375.5" y1="0.7" x2="375.5" y2="110.7"/>
	</svg>